# xmcd CD database file
#
# Track frame offsets:
#	150
#	21307
#	38465
#
# Disc length: 697 seconds
#
# Revision: 0
# Processed by: cddbd v1.5.1PL0 Copyright (c) Steve Scherf et al.
# Submitted via: CDex 1.51
#
DISCID=1802b703
DTITLE=大木彩乃 - 瞬きとキス
DYEAR=2000
DGENRE=JPop
TTITLE0=瞬きとキス
TTITLE1=ミモザ
TTITLE2=瞬きとキス Bossa nova version
EXTD=YEAR: 2000
EXTT0=
EXTT1=
EXTT2=
PLAYORDER=
